<svg width="1536" height="1024" version="1.1" xmlns="http://www.w3.org/2000/svg" desc="Created with imagetracer.js version 1.2.6" ><path fill="rgb(0,0,0)" stroke="rgb(0,0,0)" stroke-width="1" opacity="0" d="M 0 0 L 1536 0 L 1536 1024 L 0 1024 L 0 0 Z M 608 229 L 607 230 L 591 230 L 567 237 Q 551 244 540 255 Q 529 265 522 278 Q 523 280 521 279 L 521 281 L 515 294 Q 516 296 514 295 L 514 297 L 511 309 L 511 320 L 511 322 L 510 323 L 510 353 L 509 354 L 511 357 L 510 359 L 510 377 L 509 378 L 511 381 L 509 386 L 511 389 L 510 391 Q 509 395 511 397 L 510 400 L 511 403 L 511 405 L 509 410 L 511 410 Q 512 415 509 418 L 511 421 L 509 426 L 511 426 L 511 429 L 510 432 L 511 434 L 510 436 L 511 439 L 511 441 L 510 444 L 511 445 L 511 455 L 511 457 L 510 466 L 511 469 Q 512 473 509 474 L 511 474 L 511 477 L 510 480 L 511 482 L 510 484 L 511 488 L 510 491 L 511 495 L 511 497 L 511 512 L 509 514 L 511 517 L 511 539 L 511 541 L 510 544 L 511 546 Q 512 550 510 552 L 511 559 L 511 561 L 511 591 L 510 594 L 510 596 L 511 599 L 511 601 Q 513 606 510 608 L 511 611 L 511 613 L 511 624 L 510 625 L 511 626 L 511 645 L 517 669 Q 524 686 537 699 Q 536 701 539 700 L 541 704 L 560 717 L 575 724 L 600 730 L 614 730 L 615 731 L 617 730 L 621 731 L 631 730 L 633 730 L 647 730 L 648 731 Q 649 729 655 730 L 657 730 L 662 731 L 665 730 Q 669 729 671 731 L 673 730 Q 677 729 679 731 L 681 730 L 695 730 L 696 731 L 697 730 L 716 730 L 718 730 L 720 731 Q 721 729 727 730 L 729 730 L 815 730 L 816 731 L 817 730 L 837 730 L 840 731 L 841 730 L 869 730 L 873 730 L 884 730 L 886 731 L 889 730 L 894 731 L 897 730 L 911 730 L 912 731 L 913 730 L 938 730 L 943 729 L 945 729 L 963 724 L 982 715 L 1000 701 L 1010 689 L 1021 670 L 1025 658 L 1028 642 L 1028 312 L 1022 290 L 1014 275 L 1016 275 L 1016 274 Q 1015 271 1014 273 Q 1011 272 1013 271 L 1012 270 L 1004 261 Q 989 244 967 235 L 946 230 L 930 230 L 929 229 L 927 230 L 925 230 L 922 229 L 920 230 L 918 229 Q 916 232 910 230 L 908 230 L 905 229 L 903 229 L 901 230 L 889 230 L 887 230 L 885 229 L 881 229 L 879 230 Q 873 232 872 229 L 868 230 L 866 230 L 857 230 L 856 229 L 854 230 L 849 229 L 847 230 L 845 229 L 841 230 L 839 230 Q 833 232 832 229 Q 830 232 825 230 L 823 230 Q 817 232 816 229 L 815 230 L 700 230 L 697 229 L 695 230 L 681 230 L 679 230 L 677 229 L 674 230 L 672 230 L 657 230 L 656 229 Q 654 231 650 230 L 648 230 L 645 229 L 636 230 L 632 230 L 627 229 L 625 230 L 623 230 L 609 230 L 608 229 Z " /><path fill="rgb(6,94,185)" stroke="rgb(6,94,185)" stroke-width="1" opacity="0.9921568627450981" d="M 762.5 230 L 766 230.5 L 762.5 231 L 762.5 230 Z " /><path fill="rgb(6,94,185)" stroke="rgb(6,94,185)" stroke-width="1" opacity="0.9921568627450981" d="M 768.5 230 L 772 230.5 L 768.5 231 L 768.5 230 Z " /><path fill="rgb(6,94,185)" stroke="rgb(6,94,185)" stroke-width="1" opacity="0.9921568627450981" d="M 784.5 230 L 792 230.5 L 784.5 231 L 784.5 230 Z " /><path fill="rgb(6,94,185)" stroke="rgb(6,94,185)" stroke-width="1" opacity="0.9921568627450981" d="M 793.5 230 L 796 230.5 L 793.5 231 L 793.5 230 Z " /><path fill="rgb(6,94,185)" stroke="rgb(6,94,185)" stroke-width="1" opacity="0.9921568627450981" d="M 800.5 230 L 805 230.5 L 800.5 231 L 800.5 230 Z " /><path fill="rgb(6,94,185)" stroke="rgb(6,94,185)" stroke-width="1" opacity="0.9921568627450981" d="M 808.5 230 L 812 230.5 L 808.5 231 L 808.5 230 Z " /><path fill="rgb(6,94,185)" stroke="rgb(6,94,185)" stroke-width="1" opacity="0.9921568627450981" d="M 816.5 230 L 821 230.5 L 816.5 231 L 816.5 230 Z " /><path fill="rgb(6,94,185)" stroke="rgb(6,94,185)" stroke-width="1" opacity="0.9921568627450981" d="M 824.5 230 L 832 230.5 L 824.5 231 L 824.5 230 Z " /><path fill="rgb(6,94,185)" stroke="rgb(6,94,185)" stroke-width="1" opacity="0.9921568627450981" d="M 833.5 230 L 887 230.5 L 833.5 231 L 833.5 230 Z " /><path fill="rgb(6,94,185)" stroke="rgb(6,94,185)" stroke-width="1" opacity="0.9921568627450981" d="M 888.5 230 L 912 230.5 L 888.5 231 L 888.5 230 Z " /><path fill="rgb(6,94,185)" stroke="rgb(6,94,185)" stroke-width="1" opacity="0.9921568627450981" d="M 914.5 230 L 936 230.5 L 914.5 231 L 914.5 230 Z " /><path fill="rgb(6,94,185)" stroke="rgb(6,94,185)" stroke-width="1" opacity="0.9921568627450981" d="M 937.5 230 L 941 230.5 L 937.5 231 L 937.5 230 Z " /><path fill="rgb(6,94,185)" stroke="rgb(6,94,185)" stroke-width="1" opacity="0.9921568627450981" d="M 945.5 231 L 955.5 232 L 962 234.5 L 959.5 235 L 955.5 233 L 945.5 232 L 945.5 231 Z " /><path fill="rgb(6,94,185)" stroke="rgb(6,94,185)" stroke-width="1" opacity="0.9921568627450981" d="M 963.5 235 L 974 239.5 L 972.5 240 L 963.5 236 L 963.5 235 Z " /><path fill="rgb(6,94,185)" stroke="rgb(6,94,185)" stroke-width="1" opacity="0.9921568627450981" d="M 785.5 240 L 786.5 241 L 799.5 241 L 801.5 240 L 805.5 241 L 808.5 240 Q 816.7 238.3 820.5 241 L 821.5 240 L 935.5 240 L 936.5 241 L 947.5 241 L 955.5 243 L 974.5 251 Q 988.7 259.2 998.5 272 L 999 270.5 L 994 264.5 L 996 265.5 Q 995.3 267.8 997.5 267 L 999 270 L 1001 269.5 L 1000 266.5 L 1001.5 264 L 1005.5 267 L 1006 265.5 L 1000.5 259 Q 998.3 259.8 999 257.5 Q 989 247 975 240.5 L 976.5 240 L 995.5 252 L 997 251.5 L 996 252.5 L 1003 259.5 L 1011.5 270 L 1013 270.5 Q 1010.5 272 1014 273.5 L 1014.5 275 L 1016 274.5 L 1015 276.5 L 1019 282.5 L 1025 297.5 L 1028 311.5 L 1028 641.5 L 1025 657.5 L 1021 669.5 L 1010 688.5 L 1000 701 L 981.5 715 L 962.5 724 L 944.5 729 L 942.5 729 L 937.5 730 L 912.5 730 L 911.5 731 L 910.5 730 L 896.5 730 L 893.5 731 L 888.5 730 L 885.5 731 L 883.5 730 L 872.5 730 L 868.5 730 L 840.5 730 L 839.5 731 L 836.5 730 L 816.5 730 L 815.5 731 L 814.5 730 L 728.5 730 L 726.5 730 Q 721 728.5 719.5 731 L 717.5 730 L 715.5 730 L 696.5 730 L 695.5 731 L 694.5 730 L 680.5 730 L 678.5 731 Q 677.3 728.8 672.5 730 L 670.5 731 Q 669.2 728.8 664.5 730 L 661.5 731 L 656.5 730 L 654.5 730 Q 649 728.5 647.5 731 L 646.5 730 L 632.5 730 L 630.5 730 L 620.5 731 L 616.5 730 L 614.5 731 L 613.5 730 L 599.5 730 L 574.5 724 L 559.5 717 L 541 704 L 538.5 700 Q 536.3 700.8 537 698.5 Q 524.2 686.3 517 668.5 L 511 644.5 L 511 625.5 L 510 624.5 L 511 623.5 L 511 612.5 L 511 610.5 L 510 607.5 L 511 606.5 L 511 592.5 L 511 590.5 L 511 560.5 L 510 559.5 Q 512.2 558.2 511 553.5 L 511 551.5 Q 512.7 545.3 510 543.5 L 511 540.5 L 511 538.5 L 511 516.5 L 510 515.5 L 511 513.5 L 511 511.5 L 511.5 347 L 512 447.5 L 513 448.5 L 513.5 474 L 514.5 448 Q 513.9 452.6 516.5 454 L 518 453.5 L 516.5 451 L 518.5 452 L 519.5 450 L 518 449.5 L 520 449 L 520.5 435 L 521.5 510 L 522 365.5 L 523 364.5 L 522 361.5 L 523 360.5 L 523.5 347 L 524.5 366 L 525.5 360 L 526.5 365 L 527.5 362 L 528 390.5 L 529 391.5 L 529.5 403 L 531 402.5 Q 529.9 405.8 532.5 405 L 536.5 405 L 538.5 406 L 552.5 400 L 555 401 L 555.5 399 L 558.5 401 L 558.5 399 L 561 400 L 562.5 395 L 563 396.5 L 562 399 Q 565.3 400.3 564 395.5 L 566.5 395 L 568 395.5 Q 565.8 396.8 568.5 398 L 569.5 395 L 571 395.5 Q 570.3 393.3 572.5 394 L 576 392 L 576.5 395 L 578.5 392 L 580.5 392 L 584.5 393 L 585 391 L 589 390 L 589.5 388 L 591.5 389 L 597 386 L 597.5 388 L 598 386 Q 600.7 384.9 600 387.5 L 601 387.5 Q 600.3 385.3 602.5 386 L 604 386.5 L 605.5 384 L 609 385 L 609.5 382 L 611.5 383 L 613 382.5 L 613.5 384 L 616 383 L 618.5 379 L 619.5 380 Q 621.3 376.9 623 378.5 L 623.5 377 L 624.5 380 L 626.5 377 Q 628.7 381.3 631 376.5 L 629 376 L 629.5 374 L 633.5 376 L 633.5 374 L 635.5 375 L 638 374 L 638.5 372 L 640.5 372 L 642 371.5 L 641.5 370 Q 644 374.5 646.5 369 L 651.5 367 L 654.5 368 L 657.5 364 L 662 364 Q 660.3 359.9 664.5 361 L 666 361.5 Q 665.1 358.1 670.5 360 L 674.5 358 L 675.5 359 L 677.5 357 L 681.5 357 L 687.5 354 L 691 355 L 691.5 352 L 692 354 L 694 353.5 L 693.5 352 L 700 351.5 L 699.5 350 L 702.5 351 L 708.5 348 L 710 348.5 L 709 346.5 L 712 345 Q 710.5 348.8 713.5 348 L 713 346.5 L 713.5 345 L 715.5 348 L 716 346.5 L 715.5 345 L 717.5 346 L 723.5 344 L 727.5 342 Q 729.5 346 731.5 342 L 733 341.5 L 732.5 340 L 736.5 343 L 738.5 340 L 741.5 338 Q 742.8 340.3 744 337.5 Q 743.3 335.3 745.5 336 L 747.5 336 L 752 335.5 L 749 334.5 L 751.5 334 L 753.5 335 L 753.5 333 L 756 332.5 L 755.5 329 L 759.5 329 Q 762.1 328.2 761 331.5 L 764 331.5 Q 764.8 329.3 762.5 330 L 763.5 328 L 766 327.5 Q 763.8 326.3 766.5 325 L 767.5 328 L 768 326 L 770 325.5 L 768 324.5 L 770 323.5 L 768 320.5 L 770 321.5 Q 769.3 323.8 771.5 323 L 772.5 320 L 775.5 320 Q 777.4 316.4 782 317 L 782.5 315 L 784.5 319 L 786.5 314 L 788.5 315 L 788.5 313 L 790.5 313 L 792 312.5 L 791 310 L 793 309.5 L 792.5 308 L 794.5 307 L 796 307.5 L 796.5 306 L 797.5 308 L 798 305.5 L 797.5 304 L 799 304.5 L 799.5 302 L 800.5 305 L 801 303 L 803 302.5 L 801 301.5 L 802.5 301 Q 803.8 303.3 805 300.5 L 804.5 299 Q 806 302.5 807.5 300 L 813 297.5 Q 811.3 292.7 815.5 294 L 815.5 292 L 821 290.5 L 819 289.5 Q 820.3 286.8 821.5 289 L 824 287.5 L 822 287 L 822.5 285 L 824 285.5 Q 823.3 283.3 825.5 284 L 827 284.5 L 826 282.5 L 828.5 284 L 829.5 283 Q 832.1 283.7 831 281 L 828 280.5 L 828.5 279 L 826 277.5 L 827.5 278 Q 832 277 833 279.5 L 831 280.5 L 833.5 282 L 835 281.5 L 835.5 283 Q 838.5 281.5 835.5 280 L 834 279.5 L 834.5 278 Q 832.3 278.8 833 276.5 L 835.5 278 L 837 277.5 L 835.5 275 L 838.5 276 L 844 273.5 L 843.5 272 L 847.5 271 L 848.5 273 L 851 272.5 L 850 269.5 L 850.5 267 L 855.5 270 L 857 266.5 L 855 266.5 L 859.5 264 L 861.5 263 L 863 263.5 L 862 259.5 L 864 258.5 L 862 257.5 L 864 257 L 864.5 255 L 865.5 257 L 868.5 251 L 869 252.5 L 868.5 254 L 871 252.5 L 870 250.5 L 872 251.5 L 872.5 256 L 874.5 253 L 876.5 256 L 877 253 L 881 251.5 L 880.5 250 Q 879.3 252.2 878 249.5 L 880 249.5 L 881 247.5 L 878 246.5 L 882.5 246 L 882.5 248 L 887 247.5 L 884 246.5 L 899 245.5 L 839.5 245 L 838.5 244 L 835.5 245 L 832.5 244 L 830.5 244 L 738 243.5 L 812 242.5 L 682 241.5 L 784.5 241 L 785.5 240 Z M 817 242 L 817 243 L 821 243 L 817 242 Z M 901 245 L 901 246 L 905 246 L 901 245 Z M 1008 268 Q 1006 271 1009 270 L 1008 268 Z M 1000 272 L 999 274 L 1001 275 L 1000 272 Z M 948 281 L 946 283 L 942 308 L 940 313 L 941 314 L 976 314 L 977 313 L 978 303 L 983 282 L 948 281 Z M 924 310 L 923 311 L 884 311 L 879 341 L 876 352 L 917 351 L 924 313 Q 926 311 924 310 Z M 777 320 L 776 323 L 778 323 L 777 320 Z M 933 335 L 928 363 L 929 364 L 957 364 L 958 363 L 960 347 L 962 341 Q 963 335 962 335 L 933 335 Z M 865 339 L 862 342 L 851 347 L 834 352 Q 824 352 818 355 L 802 356 L 801 357 L 787 357 L 786 358 L 757 358 L 756 359 L 721 360 L 720 361 L 705 362 L 679 367 L 651 376 Q 634 383 621 394 Q 606 406 598 425 L 592 447 L 589 471 L 589 473 L 591 473 L 596 466 Q 623 436 667 423 L 704 415 L 753 410 L 778 405 L 781 406 Q 763 411 742 413 L 751 413 L 752 413 L 748 416 Q 743 414 744 418 L 741 419 Q 742 422 740 421 L 739 423 L 745 421 L 746 422 L 721 430 L 715 434 L 717 434 L 718 434 L 716 438 L 725 439 L 694 440 L 694 441 L 783 441 L 784 440 L 803 440 L 804 439 L 822 438 L 844 434 L 858 430 Q 873 424 886 415 Q 907 398 915 370 L 909 371 L 899 371 L 898 372 L 888 372 L 887 373 L 876 373 L 875 374 L 860 374 L 859 375 L 849 375 L 860 357 L 865 342 L 865 339 Z M 674 366 L 674 367 L 676 367 L 674 366 Z M 734 413 L 734 414 L 741 414 L 734 413 Z M 726 414 L 726 415 L 728 415 L 726 414 Z M 736 422 L 734 423 L 734 424 L 737 423 L 736 422 Z M 909 422 Q 898 434 883 442 L 858 453 L 836 459 L 831 459 L 813 463 L 793 464 L 792 465 L 776 465 L 775 466 L 690 466 L 690 459 L 693 441 L 682 443 L 677 473 L 678 476 L 764 476 L 756 521 L 672 522 L 670 524 L 670 530 L 666 552 L 665 553 L 656 554 L 632 562 Q 616 568 604 578 Q 592 587 585 600 L 578 616 L 574 634 L 575 639 Q 576 626 581 618 L 579 618 L 582 611 L 583 611 L 581 615 L 582 617 L 594 599 L 616 579 L 646 564 L 670 557 L 682 556 L 683 555 L 692 555 L 693 554 L 710 554 L 711 553 L 713 554 L 714 553 L 786 553 L 787 552 L 807 551 L 836 545 L 868 532 Q 885 522 897 508 L 897 505 Q 885 518 869 526 Q 849 536 826 542 L 810 545 L 803 545 L 802 546 L 778 547 L 777 548 L 703 548 L 702 549 L 686 549 L 685 550 L 676 550 L 679 530 L 692 530 L 693 529 L 760 529 L 761 528 L 781 528 L 782 527 L 792 527 L 800 525 L 806 525 L 824 521 L 844 514 L 869 499 Q 900 473 909 425 L 909 422 Z M 894 513 L 892 516 L 894 515 L 894 513 Z M 831 547 L 826 549 L 803 553 L 768 554 L 767 555 L 721 555 L 720 554 L 717 555 L 694 555 L 693 556 L 677 557 L 663 560 L 650 565 L 653 566 L 652 568 L 650 568 L 652 571 L 653 569 L 656 574 L 656 572 L 659 571 L 660 573 L 662 572 L 660 575 Q 659 577 663 576 L 665 576 L 665 578 L 667 578 Q 666 580 669 579 Q 670 582 672 580 L 671 582 L 678 586 L 679 587 Q 678 584 683 585 L 684 586 Q 683 583 686 584 L 685 586 Q 687 589 689 585 L 688 588 L 691 587 L 694 589 L 693 591 L 696 589 L 697 592 Q 699 591 697 590 L 699 590 L 702 589 L 704 590 L 704 588 L 709 587 L 710 589 L 711 587 L 715 590 L 715 589 L 715 587 L 717 588 L 719 587 L 718 589 L 720 589 L 723 586 L 724 587 L 727 585 L 729 588 L 729 585 L 731 585 L 734 583 L 734 585 L 734 586 Q 736 587 735 584 L 738 585 Q 739 583 744 584 L 743 583 L 745 583 Q 744 579 749 581 L 751 581 L 751 578 L 754 579 L 756 575 L 756 577 L 758 576 L 761 577 L 761 576 L 763 576 L 764 573 L 764 575 L 767 575 Q 769 574 767 573 L 771 572 L 770 571 L 772 571 L 775 570 L 774 569 L 776 569 L 776 567 L 780 565 L 781 567 L 786 565 L 788 565 Q 791 566 790 564 L 792 564 Q 791 559 795 558 L 798 559 L 800 558 L 798 556 L 801 557 L 802 554 L 805 555 L 807 553 L 818 551 L 822 552 L 824 550 L 833 548 L 831 547 Z M 648 565 L 648 566 L 650 566 L 648 565 Z M 800 587 L 800 588 L 802 588 L 800 587 Z M 702 590 L 704 593 L 704 592 L 702 590 Z M 789 590 L 789 591 L 791 591 L 789 590 Z M 784 591 L 784 592 L 787 592 L 784 591 Z M 779 592 L 779 593 L 782 593 L 779 592 Z M 774 593 L 774 594 L 778 594 L 774 593 Z M 768 594 L 763 595 L 763 596 L 773 595 L 768 594 Z M 756 596 L 756 597 L 762 597 L 756 596 Z M 748 597 L 739 599 L 730 599 L 729 600 L 682 604 L 681 605 L 674 605 L 657 608 L 657 609 L 675 607 L 676 606 L 683 606 L 684 605 L 714 603 L 715 602 L 723 602 L 724 601 L 755 598 L 748 597 Z M 652 609 L 652 610 L 656 610 L 652 609 Z M 647 610 L 647 611 L 651 611 L 647 610 Z M 643 611 L 643 612 L 646 612 L 643 611 Z M 639 612 L 639 613 L 642 613 L 639 612 Z M 636 613 L 636 614 L 638 614 L 636 613 Z M 632 614 L 632 615 L 634 615 L 632 614 Z M 629 615 L 629 616 L 631 616 L 629 615 Z M 993 670 L 987 677 Q 968 698 935 705 L 935 706 L 945 705 L 957 701 Q 973 694 985 682 L 993 672 L 993 670 Z " /><path fill="rgb(6,94,185)" stroke="rgb(6,94,185)" stroke-width="1" opacity="0.9921568627450981" d="M 652.5 241 L 658 241.5 L 652.5 242 L 652.5 241 Z " /><path fill="rgb(6,94,185)" stroke="rgb(6,94,185)" stroke-width="1" opacity="0.9921568627450981" d="M 659.5 241 L 665 241.5 L 659.5 242 L 659.5 241 Z " /><path fill="rgb(6,94,185)" stroke="rgb(6,94,185)" stroke-width="1" opacity="0.9921568627450981" d="M 666.5 241 L 681 241.5 L 666.5 242 L 666.5 241 Z " /><path fill="rgb(6,94,185)" stroke="rgb(6,94,185)" stroke-width="1" opacity="0.9921568627450981" d="M 853.5 263 L 854.5 265 L 853.5 263 Z " /><path fill="rgb(6,94,185)" stroke="rgb(6,94,185)" stroke-width="1" opacity="0.9921568627450981" d="M 821.5 282 L 820.5 284 L 821.5 282 Z " /><path fill="rgb(6,94,185)" stroke="rgb(6,94,185)" stroke-width="1" opacity="0.9921568627450981" d="M 816.5 289 L 817 291 L 815 290.5 L 816.5 289 Z " /><path fill="rgb(6,94,185)" stroke="rgb(6,94,185)" stroke-width="1" opacity="0.9921568627450981" d="M 813.5 290 L 814 292.5 L 813 292.5 L 813.5 290 Z " /><path fill="rgb(6,94,185)" stroke="rgb(6,94,185)" stroke-width="1" opacity="0.9921568627450981" d="M 806.5 293 Q 808.8 292.3 808 294.5 L 809 294.5 L 809.5 293 L 812 296.5 Q 809.7 294.7 807.5 299 Q 804.9 299.8 806 296.5 L 805.5 295 L 807.5 298 L 809 296.5 L 806.5 293 Z " /><path fill="rgb(6,94,185)" stroke="rgb(6,94,185)" stroke-width="1" opacity="0.9921568627450981" d="M 794.5 302 L 794 303.5 L 795 305.5 L 792.5 306 L 791 305.5 L 793 305 L 794.5 302 Z " /><path fill="rgb(6,94,185)" stroke="rgb(6,94,185)" stroke-width="1" opacity="0.9921568627450981" d="M 787.5 310 L 790 311.5 L 788.5 312 L 787.5 310 Z " /><path fill="rgb(6,94,185)" stroke="rgb(6,94,185)" stroke-width="1" opacity="0.9921568627450981" d="M 779.5 312 L 780.5 314 L 779.5 312 Z " /><path fill="rgb(6,94,185)" stroke="rgb(6,94,185)" stroke-width="1" opacity="0.9921568627450981" d="M 511.5 315 L 512 317.5 L 511 317.5 L 511.5 315 Z " /><path fill="rgb(6,94,185)" stroke="rgb(6,94,185)" stroke-width="1" opacity="0.9921568627450981" d="M 773.5 317 L 776 317.5 L 773 319 L 773.5 317 Z " /><path fill="rgb(6,94,185)" stroke="rgb(6,94,185)" stroke-width="1" opacity="0.9921568627450981" d="M 791.5 402 L 794 402.5 L 791.5 403 L 791.5 402 Z " /><path fill="rgb(6,94,185)" stroke="rgb(6,94,185)" stroke-width="1" opacity="0.9921568627450981" d="M 787.5 403 L 790 403.5 L 787.5 404 L 787.5 403 Z " /><path fill="rgb(6,94,185)" stroke="rgb(6,94,185)" stroke-width="1" opacity="0.9921568627450981" d="M 782.5 404 L 786 404.5 L 782.5 405 L 782.5 404 Z " /><path fill="rgb(6,94,185)" stroke="rgb(6,94,185)" stroke-width="1" opacity="0.9921568627450981" d="M 610.5 414 L 609 416.5 L 606.5 420 L 608 417.5 L 610.5 414 Z " /><path fill="rgb(6,94,185)" stroke="rgb(6,94,185)" stroke-width="1" opacity="0.9921568627450981" d="M 605.5 421 L 605 422.5 L 600 433.5 Q 601.8 439.8 599 441.5 L 600 443.5 L 600 445.5 L 599.5 447 L 598 446.5 L 599 451.5 L 597 456.5 L 597 458.5 L 597.5 461 L 599 460.5 L 594 467 L 591 468.5 L 590.5 470 L 590 468.5 L 595 441.5 L 601 427.5 L 605.5 421 Z " /><path fill="rgb(6,94,185)" stroke="rgb(6,94,185)" stroke-width="1" opacity="0.9921568627450981" d="M 520.5 429 L 521 433.5 L 520 433.5 L 520.5 429 Z " /><path fill="rgb(123,227,254)" stroke="rgb(123,227,254)" stroke-width="1" opacity="0.9882352941176471" d="M 607.5 229 L 608.5 230 L 622.5 230 L 624.5 230 L 626.5 229 L 631.5 230 L 635.5 230 L 644.5 229 L 647.5 230 L 649.5 230 Q 654.3 231.3 655.5 229 L 656.5 230 L 671.5 230 L 673.5 230 L 676.5 229 L 678.5 230 L 680.5 230 L 694.5 230 L 696.5 229 L 699.5 230 L 754.5 230 L 755.5 231 Q 756.7 228.8 761.5 230 L 765.5 231 L 767.5 230 L 771.5 231 L 774.5 230 L 776.5 231 L 781.5 230 L 784.5 231 Q 790.7 232.8 792.5 230 L 795.5 231 L 797.5 230 L 800.5 231 L 805.5 230 L 808.5 231 L 812.5 230 L 813.5 231 L 816 229.5 Q 815.1 232.9 820.5 231 L 823 230.5 L 823.5 229 L 824 231 L 832 230.5 L 831.5 229 L 833.5 231 L 887 231 L 887.5 229 L 888 231 L 911.5 231 L 913.5 230 L 914.5 231 L 935.5 231 L 937.5 231 L 945.5 230 L 945.5 232 L 951.5 231 L 951.5 232 L 950 232.5 L 955.5 233 L 957 232.5 L 956.5 234 L 961.5 232 L 960.5 234 L 959 234.5 L 961.5 235 L 963 234.5 Q 962.3 236.8 964.5 236 L 966.5 235 L 966.5 236 L 965 236.5 L 967.5 237 L 969 236.5 L 968.5 238 L 970.5 237 L 970.5 239 L 972.5 238 L 972.5 240 L 975.5 238 L 975 239.5 Q 974.3 241.8 976.5 241 L 978 240.5 Q 975.8 241.8 978.5 243 L 986.5 247 L 988 246.5 L 987 247.5 L 990.5 251 L 999 257.5 Q 998.3 259.8 1000.5 259 Q 1002.3 262.1 1004 260.5 L 1004 262.5 L 1014 277.5 L 1012 276.5 L 1009 270 Q 1006.3 271.1 1007 268.5 L 1001.5 264 L 1000 266.5 L 1000.5 270 Q 998.3 269.3 999 271.5 L 1008 286.5 L 1007 286.5 Q 998.9 268.1 983.5 257 Q 969.1 245.4 947.5 241 L 936.5 241 L 935.5 240 L 821.5 240 L 819.5 241 L 818.5 240 L 808.5 240 L 805.5 241 L 800.5 240 L 799.5 241 L 786.5 241 L 784.5 241 L 682 241.5 L 812 242.5 L 738 243.5 L 830.5 244 L 831.5 245 L 834.5 244 L 837.5 245 L 839.5 245 L 899 245.5 L 884 246.5 L 887 247.5 L 882.5 248 L 882.5 246 L 878 246.5 L 881 247.5 L 880 249.5 L 881 251.5 L 877 253 L 875.5 257 Q 873.7 253.9 872 255.5 Q 873 251 870.5 250 L 870 251.5 L 871 254.5 L 869.5 256 L 869.5 254 Q 867.3 253.3 868 255.5 L 867 255.5 L 866.5 254 L 865.5 257 L 864.5 255 L 864 257 L 862 257.5 L 864 258.5 L 862 259.5 L 863 263.5 L 861.5 266 L 861 264 L 857 266.5 L 855.5 270 L 851.5 268 Q 848.8 269.3 851 270.5 L 850.5 273 L 848 272.5 L 847.5 271 L 843 272.5 L 843.5 274 L 842 274.5 L 842.5 276 L 839.5 275 L 839.5 276 L 841 276.5 L 839.5 277 L 836.5 276 L 836.5 278 L 834 279.5 L 837 281.5 L 835 282.5 L 834.5 281 Q 830.3 282.8 833 284.5 L 832.5 286 L 830.5 283 L 829 283.5 L 829.5 285 L 827 283.5 L 826.5 285 L 824 284 Q 822.9 286.7 825.5 286 L 825.5 287 L 821.5 289 Q 820.3 286.8 819 289.5 L 821 290.5 L 815 292.5 L 815.5 294 Q 811.3 292.7 813 297.5 L 806.5 301 L 805.5 300 L 802.5 303 Q 800.3 302.3 801 304.5 L 800 304.5 L 799.5 302 L 796.5 309 Q 795 305.5 793.5 308 L 792 308.5 L 792.5 310 Q 790.3 309.3 791 311.5 L 791.5 313 L 787.5 315 L 786 314.5 L 787 316.5 L 785 316.5 L 784.5 319 L 782.5 315 L 782 316.5 L 782.5 318 L 779.5 317 L 780.5 320 L 777.5 318 Q 774.8 319.3 777 320.5 L 778 322.5 L 776 323 Q 777.8 318.5 772.5 320 L 771.5 323 L 768 324.5 L 770 325.5 L 768 326 L 766.5 329 L 763.5 328 L 762.5 330 L 764.5 329 L 764 330.5 L 763.5 332 L 761 331.5 Q 762.1 328.2 759.5 329 L 758.5 328 L 755 331.5 L 755.5 333 L 753 333.5 L 753.5 335 L 747.5 336 L 745.5 336 Q 743.3 335.3 744 337.5 L 746 337.5 L 745.5 340 L 743.5 338 L 739.5 340 L 737 341.5 L 736.5 343 L 733.5 341 L 729.5 344 L 726.5 342 L 726.5 344 L 724.5 344 L 722.5 345 L 721.5 344 L 717.5 346 Q 715.3 345.3 716 347.5 L 713.5 348 L 711.5 349 L 712 347.5 Q 713.1 344.2 710.5 345 L 710 347.5 L 709.5 349 L 707.5 349 Q 702.1 352.6 693 352.5 L 693.5 354 Q 691.3 354.8 692 352.5 L 691 352.5 Q 692.3 356.3 688.5 355 L 688.5 357 Q 687 353.5 685.5 356 L 680.5 358 L 677.5 357 L 675.5 359 L 674.5 358 L 670.5 360 Q 665.1 358.1 666 361.5 L 664.5 361 Q 660.8 359.8 662 363.5 L 662.5 365 L 657.5 364 L 654.5 368 L 651.5 367 L 643.5 372 L 641.5 372 L 639.5 373 L 638 372.5 L 639 374.5 L 637.5 374 L 635.5 375 L 633.5 374 L 633.5 376 Q 629 375.5 628.5 379 L 626 377.5 L 624.5 380 L 623.5 377 L 622.5 379 L 618.5 379 L 616 381.5 Q 616.8 383.8 614.5 383 L 613 383.5 L 612.5 382 L 610.5 383 L 609 382.5 Q 610.1 385.8 607.5 385 L 605.5 384 L 603.5 387 L 601 386 L 600.5 388 L 600 386 Q 597.3 384.9 598 387.5 L 597 387.5 Q 597.8 385.3 595.5 386 L 590.5 389 L 589 388.5 Q 589.8 390.8 587.5 390 L 588 391.5 L 587.5 393 L 587 391 Q 584.3 389.9 585 392.5 L 583.5 392 L 579.5 393 L 578 392.5 L 576.5 395 L 576 392 L 574 392.5 L 574.5 394 L 572.5 394 Q 570.3 393.3 571 395.5 L 569 395.5 L 568.5 398 L 567.5 395 L 565.5 396 L 564 395.5 Q 565.3 400.3 562 399 L 561.5 397 L 561 400 L 557.5 401 L 555 399.5 Q 555.8 401.8 553.5 401 L 551.5 401 L 548 401.5 L 548.5 403 L 545.5 402 L 541 404.5 L 541.5 406 L 539.5 405 L 537.5 405 L 535.5 404 Q 534 407.5 532.5 405 Q 529.9 405.8 531 402.5 L 529 402.5 L 527.5 362 L 526.5 365 L 525.5 360 L 524.5 366 L 523.5 347 L 522 363.5 L 522 365.5 L 521.5 510 L 520.5 435 L 520 449 L 518 449.5 L 520 450.5 Q 518.8 453.3 517.5 451 L 516 451.5 Q 518 455.2 520 453.5 L 516.5 458 L 516 456.5 L 517.5 454 L 515.5 455 L 515 452.5 L 514.5 448 L 513.5 474 L 513 448.5 L 512 447.5 L 511.5 347 L 510.5 356 L 509 353.5 L 510 352.5 L 510 322.5 Q 507.7 321.3 510.5 320 L 512 319.5 L 512 317.5 L 510 307.5 L 512 307.5 L 514 296.5 L 513.5 295 Q 515.8 295.8 515 293.5 L 521 280.5 L 520.5 279 Q 522.8 279.8 522 277.5 L 530 265.5 L 529.5 264 L 530.5 265 L 535 260.5 L 539.5 255 L 553 244.5 L 552.5 243 L 554.5 244 Q 563.2 237.2 575.5 234 Q 577 236.5 578.5 233 L 585 231.5 L 584.5 230 L 589.5 231 L 590.5 230 L 606.5 230 L 607.5 229 Z M 653 241 L 653 242 L 658 242 L 653 241 Z M 660 241 L 660 242 L 665 242 L 660 241 Z M 667 241 L 667 242 L 681 242 L 667 241 Z M 875 253 L 874 255 L 876 256 L 875 253 Z M 995 264 L 994 266 L 996 267 L 995 264 Z M 997 267 L 999 270 L 999 269 L 997 267 Z M 834 276 Q 832 279 835 278 L 834 276 Z M 828 278 L 829 279 L 828 281 L 831 281 L 830 280 L 832 280 L 833 280 Q 832 277 828 278 Z M 831 281 L 831 283 L 833 282 L 831 281 Z M 823 285 Q 821 288 824 287 L 823 285 Z M 817 289 L 815 291 L 817 291 L 817 289 Z M 814 290 L 813 293 L 814 293 L 814 290 Z M 807 293 L 808 295 Q 809 292 807 293 Z M 810 293 L 808 296 L 810 297 L 812 297 L 810 293 Z M 807 296 L 806 299 L 808 299 L 807 296 Z M 774 317 Q 772 320 775 319 L 774 317 Z M 750 334 L 750 335 L 752 335 L 750 334 Z M 630 374 Q 628 377 631 376 L 630 374 Z M 521 429 L 520 434 L 521 434 L 521 429 Z " /><path fill="rgb(123,227,254)" stroke="rgb(123,227,254)" stroke-width="1" opacity="0.9882352941176471" d="M 904.5 229 L 907 229.5 L 904.5 230 L 904.5 229 Z " /><path fill="rgb(123,227,254)" stroke="rgb(123,227,254)" stroke-width="1" opacity="0.9882352941176471" d="M 816.5 242 L 821 242.5 L 816.5 243 L 816.5 242 Z " /><path fill="rgb(123,227,254)" stroke="rgb(123,227,254)" stroke-width="1" opacity="0.9882352941176471" d="M 900.5 245 L 905 245.5 L 900.5 246 L 900.5 245 Z " /><path fill="rgb(123,227,254)" stroke="rgb(123,227,254)" stroke-width="1" opacity="0.9882352941176471" d="M 999.5 251 L 998.5 253 L 999.5 251 Z " /><path fill="rgb(123,227,254)" stroke="rgb(123,227,254)" stroke-width="1" opacity="0.9882352941176471" d="M 867.5 257 L 866.5 259 L 867.5 257 Z " /><path fill="rgb(123,227,254)" stroke="rgb(123,227,254)" stroke-width="1" opacity="0.9882352941176471" d="M 853.5 270 L 856 271.5 L 854.5 272 L 852 271.5 L 853.5 270 Z " /><path fill="rgb(123,227,254)" stroke="rgb(123,227,254)" stroke-width="1" opacity="0.9882352941176471" d="M 1014.5 272 L 1015.5 274 Q 1012.7 274.7 1014.5 272 Z " /><path fill="rgb(123,227,254)" stroke="rgb(123,227,254)" stroke-width="1" opacity="0.9882352941176471" d="M 518.5 280 L 518 281.5 L 517.5 283 L 517 281.5 L 518.5 280 Z " /><path fill="rgb(123,227,254)" stroke="rgb(123,227,254)" stroke-width="1" opacity="0.9882352941176471" d="M 947.5 281 L 983 281.5 L 978 302.5 L 977 312.5 L 975.5 314 L 940.5 314 L 940 312.5 L 942 307.5 L 946 282.5 L 947.5 281 Z " /><path fill="rgb(123,227,254)" stroke="rgb(123,227,254)" stroke-width="1" opacity="0.9882352941176471" d="M 1022.5 288 L 1023.5 290 L 1022.5 288 Z " /><path fill="rgb(123,227,254)" stroke="rgb(123,227,254)" stroke-width="1" opacity="0.9882352941176471" d="M 804.5 303 L 803.5 305 L 802 304.5 L 804.5 303 Z " /><path fill="rgb(123,227,254)" stroke="rgb(123,227,254)" stroke-width="1" opacity="0.9882352941176471" d="M 800.5 306 L 801.5 308 L 799 307.5 L 800.5 306 Z " /><path fill="rgb(123,227,254)" stroke="rgb(123,227,254)" stroke-width="1" opacity="0.9882352941176471" d="M 923.5 310 Q 926.3 311.2 924 312.5 L 917 351 L 876 352 L 879 340.5 L 884 311 L 922.5 311 L 923.5 310 Z " /><path fill="rgb(123,227,254)" stroke="rgb(123,227,254)" stroke-width="1" opacity="0.9882352941176471" d="M 933 335 L 961.5 335 Q 962.6 335.1 962 340.5 L 960 346.5 L 958 362.5 L 956.5 364 L 928.5 364 L 928 362.5 L 933 335 Z " /><path fill="rgb(123,227,254)" stroke="rgb(123,227,254)" stroke-width="1" opacity="0.9882352941176471" d="M 864.5 339 L 865 341.5 L 860 356.5 L 849 374.5 L 858.5 375 L 859.5 374 L 874.5 374 L 875.5 373 L 886.5 373 L 887.5 372 L 897.5 372 L 898.5 371 L 908.5 371 L 915 370 Q 906.8 398.5 885.5 415 Q 873.2 424.2 857.5 430 L 843.5 434 L 821.5 438 L 803.5 439 L 802.5 440 L 783.5 440 L 782.5 441 L 693 441 L 690 458.5 L 690 466 L 774.5 466 L 775.5 465 L 791.5 465 L 792.5 464 L 812.5 463 L 830.5 459 L 835.5 459 L 857.5 453 L 882.5 442 Q 897.5 434 908.5 422 L 909 424.5 Q 900.3 473.3 868.5 499 L 843.5 514 L 823.5 521 L 805.5 525 L 799.5 525 L 791.5 527 L 781.5 527 L 780.5 528 L 760.5 528 L 759.5 529 L 692.5 529 L 691.5 530 L 679 530 L 676 550 L 684.5 550 L 685.5 549 L 701.5 549 L 702.5 548 L 776.5 548 L 777.5 547 L 801.5 546 L 802.5 545 L 809.5 545 L 825.5 542 Q 849.5 536.5 868.5 526 Q 884.5 517.5 896.5 505 L 897 507.5 Q 884.8 522.3 867.5 532 L 835.5 545 L 806.5 551 L 786.5 552 L 785.5 553 L 713.5 553 L 712.5 554 L 710.5 553 L 709.5 554 L 692.5 554 L 691.5 555 L 682.5 555 L 681.5 556 L 669.5 557 L 645.5 564 L 615.5 579 L 594 598.5 Q 585.1 608.6 579 621.5 L 574.5 639 L 574 633.5 L 578 615.5 L 585 599.5 Q 592.5 587 603.5 578 Q 615.8 568.3 631.5 562 L 655.5 554 L 664.5 553 L 666 551.5 L 670 529.5 L 670 523.5 L 671.5 522 L 756 521 L 764 476 L 677.5 476 L 677 472.5 L 682 443 L 690.5 442 L 693.5 440 L 725 438.5 L 716 438 L 718 433.5 L 716.5 434 L 715 433.5 L 720.5 430 L 740 423.5 L 738 422.5 L 741 421 L 742.5 417 L 744 417.5 Q 743.1 414.5 747.5 416 L 751 413.5 L 742 412.5 L 772 407.5 L 766.5 407 L 752.5 410 L 718.5 413 L 717.5 414 L 710.5 414 L 709.5 415 L 691.5 417 L 657.5 426 L 627.5 440 Q 610.2 451.2 596 465.5 L 590.5 473 L 588.5 474 L 590 471.5 L 589 470.5 L 592 446.5 L 598 424.5 Q 605.7 405.7 620.5 394 Q 633.5 383 650.5 376 L 678.5 367 L 704.5 362 L 719.5 361 L 720.5 360 L 755.5 359 L 756.5 358 L 785.5 358 L 786.5 357 L 800.5 357 L 801.5 356 L 817.5 355 Q 824 352 833.5 352 L 850.5 347 L 861.5 342 L 864.5 339 Z M 792 402 L 792 403 L 794 403 L 792 402 Z M 788 403 L 788 404 L 790 404 L 788 403 Z M 783 404 L 783 405 L 786 405 L 783 404 Z M 778 405 L 778 406 L 781 406 L 778 405 Z M 773 406 L 773 407 L 777 407 L 773 406 Z M 741 422 L 741 423 L 744 423 L 741 422 Z M 603 426 Q 592 442 591 468 L 593 467 Q 595 468 594 466 L 597 463 L 596 462 L 597 459 L 597 457 L 599 452 L 598 447 L 600 447 L 600 446 L 600 444 L 599 442 Q 602 440 600 434 L 603 428 L 603 426 Z M 581 614 L 580 617 L 581 617 L 581 614 Z " /><path fill="rgb(123,227,254)" stroke="rgb(123,227,254)" stroke-width="1" opacity="0.9882352941176471" d="M 510.5 358 L 511 379.5 L 510 379.5 L 509 377.5 L 510 376.5 L 510.5 358 Z " /><path fill="rgb(123,227,254)" stroke="rgb(123,227,254)" stroke-width="1" opacity="0.9882352941176471" d="M 673.5 366 L 676 366.5 L 673.5 367 L 673.5 366 Z " /><path fill="rgb(123,227,254)" stroke="rgb(123,227,254)" stroke-width="1" opacity="0.9882352941176471" d="M 647.5 375 L 646.5 377 L 647.5 375 Z " /><path fill="rgb(123,227,254)" stroke="rgb(123,227,254)" stroke-width="1" opacity="0.9882352941176471" d="M 510.5 382 L 511 387.5 L 510 387.5 L 509 385.5 L 510.5 382 Z " /><path fill="rgb(123,227,254)" stroke="rgb(123,227,254)" stroke-width="1" opacity="0.9882352941176471" d="M 630.5 384 L 632 384.5 L 629.5 386 L 630.5 384 Z " /><path fill="rgb(123,227,254)" stroke="rgb(123,227,254)" stroke-width="1" opacity="0.9882352941176471" d="M 510.5 390 L 511 395.5 L 510 395.5 L 510.5 390 Z " /><path fill="rgb(123,227,254)" stroke="rgb(123,227,254)" stroke-width="1" opacity="0.9882352941176471" d="M 510.5 407 L 511 410 L 509 409.5 L 510.5 407 Z " /><path fill="rgb(123,227,254)" stroke="rgb(123,227,254)" stroke-width="1" opacity="0.9882352941176471" d="M 733.5 413 L 741 413.5 L 733.5 414 L 733.5 413 Z " /><path fill="rgb(123,227,254)" stroke="rgb(123,227,254)" stroke-width="1" opacity="0.9882352941176471" d="M 725.5 414 L 728 414.5 L 725.5 415 L 725.5 414 Z " /><path fill="rgb(123,227,254)" stroke="rgb(123,227,254)" stroke-width="1" opacity="0.9882352941176471" d="M 510.5 415 L 511 419.5 L 510 419.5 L 509 417.5 L 510.5 415 Z " /><path fill="rgb(123,227,254)" stroke="rgb(123,227,254)" stroke-width="1" opacity="0.9882352941176471" d="M 735.5 422 L 737 422.5 L 733.5 424 L 733.5 423 L 735.5 422 Z " /><path fill="rgb(123,227,254)" stroke="rgb(123,227,254)" stroke-width="1" opacity="0.9882352941176471" d="M 510.5 423 L 511 426 L 509 425.5 L 510.5 423 Z " /><path fill="rgb(123,227,254)" stroke="rgb(123,227,254)" stroke-width="1" opacity="0.9882352941176471" d="M 510.5 431 L 511 432.5 L 509 433.5 L 510.5 431 Z " /><path fill="rgb(123,227,254)" stroke="rgb(123,227,254)" stroke-width="1" opacity="0.9882352941176471" d="M 510.5 472 L 511 474 L 508.5 475 L 510.5 472 Z " /><path fill="rgb(123,227,254)" stroke="rgb(123,227,254)" stroke-width="1" opacity="0.9882352941176471" d="M 510.5 479 L 511 480.5 L 509 481.5 L 510.5 479 Z " /><path fill="rgb(123,227,254)" stroke="rgb(123,227,254)" stroke-width="1" opacity="0.9882352941176471" d="M 509.5 513 Q 511.8 512.3 511 514.5 L 509.5 513 Z " /><path fill="rgb(123,227,254)" stroke="rgb(123,227,254)" stroke-width="1" opacity="0.9882352941176471" d="M 893.5 513 L 894 514.5 Q 887.8 527.8 878.5 538 L 880 535.5 L 893.5 513 Z " /><path fill="rgb(123,227,254)" stroke="rgb(123,227,254)" stroke-width="1" opacity="0.9882352941176471" d="M 877.5 539 L 872.5 545 L 877.5 539 Z " /><path fill="rgb(123,227,254)" stroke="rgb(123,227,254)" stroke-width="1" opacity="0.9882352941176471" d="M 830.5 547 L 833 547.5 L 823.5 550 L 821.5 552 L 817.5 551 L 806.5 553 L 805 554.5 L 806.5 557 L 802 554 L 799.5 558 L 798 558.5 L 798.5 560 L 794.5 558 L 794.5 560 Q 793.3 557.8 792 560.5 L 791.5 564 L 790 563.5 Q 790.8 566.1 787.5 565 L 785.5 565 L 784 565.5 L 784.5 567 L 781.5 566 L 780 566.5 L 779.5 565 L 778.5 568 L 776 567 L 774.5 570 L 767 572.5 Q 769.2 573.8 766.5 575 L 764 574.5 L 763.5 573 L 762.5 576 L 761 575.5 L 760.5 577 L 757.5 576 L 756 576.5 L 755.5 575 L 753.5 579 L 751 578 L 750.5 581 L 748.5 581 Q 744.1 579.5 745 582.5 L 743.5 584 Q 738.8 582.7 737.5 585 L 735 583.5 Q 736.1 586.8 733.5 586 L 734 584.5 L 733.5 583 L 730.5 585 L 729 584.5 L 728.5 588 L 726.5 585 L 725.5 588 L 722.5 586 L 718.5 589 L 714.5 587 L 715 588.5 L 714.5 590 L 710.5 587 L 709.5 589 L 709 587 L 704 588 L 703 590.5 L 704 592.5 L 700.5 590 L 696.5 592 L 695.5 589 L 694.5 592 L 693 589.5 Q 695.3 588.3 692.5 587 L 690 587.5 L 692 588.5 L 690.5 589 L 685 585.5 L 685.5 584 Q 683.3 583.3 684 585.5 L 682.5 585 Q 678.1 583.5 679 586.5 L 677.5 586 L 671.5 582 L 670 582.5 Q 672.8 580.8 668.5 579 Q 666.3 579.8 667 577.5 L 665 577.5 L 664.5 576 L 662.5 576 Q 659.2 577.1 660 574.5 L 661.5 572 L 659.5 573 L 658.5 571 L 656 572 L 655.5 574 L 652.5 569 L 651.5 571 L 650 567.5 L 652 567.5 L 653 565.5 L 650.5 565 L 645.5 567 L 645.5 566 L 655.5 562 L 676.5 557 L 692.5 556 L 693.5 555 L 716.5 555 L 719.5 554 L 720.5 555 L 766.5 555 L 767.5 554 L 802.5 553 L 825.5 549 L 830.5 547 Z " /><path fill="rgb(123,227,254)" stroke="rgb(123,227,254)" stroke-width="1" opacity="0.9882352941176471" d="M 869.5 548 L 868.5 550 L 869.5 548 Z " /><path fill="rgb(123,227,254)" stroke="rgb(123,227,254)" stroke-width="1" opacity="0.9882352941176471" d="M 864.5 552 L 861.5 556 L 864.5 552 Z " /><path fill="rgb(123,227,254)" stroke="rgb(123,227,254)" stroke-width="1" opacity="0.9882352941176471" d="M 858.5 557 L 856.5 560 L 858.5 557 Z " /><path fill="rgb(123,227,254)" stroke="rgb(123,227,254)" stroke-width="1" opacity="0.9882352941176471" d="M 854.5 560 L 852.5 563 L 854.5 560 Z " /><path fill="rgb(123,227,254)" stroke="rgb(123,227,254)" stroke-width="1" opacity="0.9882352941176471" d="M 850.5 563 L 849.5 565 L 850.5 563 Z " /><path fill="rgb(123,227,254)" stroke="rgb(123,227,254)" stroke-width="1" opacity="0.9882352941176471" d="M 847.5 565 L 846.5 567 L 847.5 565 Z " /><path fill="rgb(123,227,254)" stroke="rgb(123,227,254)" stroke-width="1" opacity="0.9882352941176471" d="M 844.5 567 L 843.5 569 L 844.5 567 Z " /><path fill="rgb(123,227,254)" stroke="rgb(123,227,254)" stroke-width="1" opacity="0.9882352941176471" d="M 839.5 570 L 838.5 572 L 836.5 573 L 837.5 571 L 839.5 570 Z " /><path fill="rgb(123,227,254)" stroke="rgb(123,227,254)" stroke-width="1" opacity="0.9882352941176471" d="M 832.5 574 L 831.5 576 L 830 575.5 L 832.5 574 Z " /><path fill="rgb(123,227,254)" stroke="rgb(123,227,254)" stroke-width="1" opacity="0.9882352941176471" d="M 667.5 580 L 668.5 582 L 667.5 580 Z " /><path fill="rgb(123,227,254)" stroke="rgb(123,227,254)" stroke-width="1" opacity="0.9882352941176471" d="M 814.5 582 L 816 582.5 L 812.5 584 L 812.5 583 L 814.5 582 Z " /><path fill="rgb(123,227,254)" stroke="rgb(123,227,254)" stroke-width="1" opacity="0.9882352941176471" d="M 730.5 586 L 731.5 588 L 730.5 586 Z " /><path fill="rgb(123,227,254)" stroke="rgb(123,227,254)" stroke-width="1" opacity="0.9882352941176471" d="M 799.5 587 L 802 587.5 L 799.5 588 L 799.5 587 Z " /><path fill="rgb(123,227,254)" stroke="rgb(123,227,254)" stroke-width="1" opacity="0.9882352941176471" d="M 788.5 590 L 791 590.5 L 788.5 591 L 788.5 590 Z " /><path fill="rgb(123,227,254)" stroke="rgb(123,227,254)" stroke-width="1" opacity="0.9882352941176471" d="M 783.5 591 L 787 591.5 L 783.5 592 L 783.5 591 Z " /><path fill="rgb(123,227,254)" stroke="rgb(123,227,254)" stroke-width="1" opacity="0.9882352941176471" d="M 778.5 592 L 782 592.5 L 747.5 599 L 668.5 607 L 635.5 614 L 635.5 613 L 673.5 605 L 698.5 603 L 699.5 602 L 708.5 602 L 709.5 601 L 718.5 601 L 719.5 600 L 728.5 600 L 729.5 599 L 738.5 599 L 739.5 598 L 761.5 596 L 778.5 592 Z " /><path fill="rgb(123,227,254)" stroke="rgb(123,227,254)" stroke-width="1" opacity="0.9882352941176471" d="M 631.5 614 L 634 614.5 L 628.5 616 L 628.5 615 L 631.5 614 Z " /><path fill="rgb(123,227,254)" stroke="rgb(123,227,254)" stroke-width="1" opacity="0.9882352941176471" d="M 993.5 669 L 993 670.5 L 984.5 682 Q 972.7 693.7 956.5 701 L 944.5 705 L 934.5 706 L 934.5 705 Q 967.6 697.6 987 676.5 L 993.5 669 Z " /></svg>